<?xml version="1.0" standalone="no"?>
<!DOCTYPE svg PUBLIC "-//W3C//DTD SVG 1.1//EN" "http://www.w3.org/Graphics/SVG/1.1/DTD/svg11.dtd">
<svg xmlns="http://www.w3.org/2000/svg">
<metadata>Copyright (C) 2020 by original authors @ fontello.com</metadata>
<defs>
<font id="sidebar-merchant" horiz-adv-x="1000" >
<font-face font-family="sidebar-merchant" font-weight="400" font-stretch="normal" units-per-em="1000" ascent="850" descent="-150" />
<missing-glyph horiz-adv-x="1000" />
<glyph glyph-name="dashboard" unicode="&#xe800;" d="M1087 505l-415-364c0-1-1-1-1-2a71 71 0 0 1 50-121 72 72 0 0 1 51 23l365 414a35 35 0 0 1-50 50z m-337 345a750 750 0 0 1-714-978 31 31 0 0 1 29-22h1370a31 31 0 0 1 29 22 750 750 0 0 1-714 978z m594-781h91a685 685 0 0 0-24-157h-1322a685 685 0 0 0-24 157h91a31 31 0 1 1 0 62h-92a682 682 0 0 0 76 285l80-46a31 31 0 0 1 31 54l-79 46a692 692 0 0 0 208 209l46-80a31 31 0 1 1 54 31l-46 80a682 682 0 0 0 285 76v-92a31 31 0 1 1 62 0v92a682 682 0 0 0 285-76l-46-80a31 31 0 1 1 54-31l46 80a692 692 0 0 0 209-209l-80-46a31 31 0 0 1 31-54l80 46a682 682 0 0 0 76-285h-92a31 31 0 1 1 0-62z" horiz-adv-x="1500" />

<glyph glyph-name="order-history" unicode="&#xe801;" d="M952 233h-242v188l262 264a97 97 0 0 1-68 165 95 95 0 0 1-68-28l-126-128v42a81 81 0 0 1-81 82h-116a48 48 0 0 1-45 32h-226a48 48 0 0 1-45-32h-116a81 81 0 0 1-81-82v-681a81 81 0 0 1 81-82h435v-81a49 49 0 0 1 49-49h387a49 49 0 0 1 48 49v292a49 49 0 0 1-48 49z m-178-65v-32h-32v32h-32v-32h-33v65h162v-65h-33v32z m-258 16v-113h-419v649h100a48 48 0 0 1 45-32h226a48 48 0 0 1 45 32h100v-123l-175-176-48-129a44 44 0 0 1 41-59 43 43 0 0 1 15 3l127 48 40 40v-91h-48a49 49 0 0 1-49-49z m49 137l-34 34 267 269 34-34z m-107 61l77-78-101-38a12 12 0 0 0-15 11 11 11 0 0 0 1 4z m307 322l25 26 90-91-25-26z m11-57l-268-269-34 34 268 269z m-99-414h-32v123l32 33z m182 566a63 63 0 0 0 45 19 64 64 0 0 0 45-110l-46-46-90 91z m-182-63v-74l-32-32v90a32 32 0 0 1-32 33h-97v32h113a49 49 0 0 0 48-49z m-451 65a16 16 0 0 0 16 17h226a16 16 0 0 0 16-17v-65a16 16 0 0 0-16-16h-226a16 16 0 0 0-16 16z m-145-795a49 49 0 0 0-49 49v681a49 49 0 0 0 49 49h113v-32h-97a32 32 0 0 1-32-33v-649a32 32 0 0 1 32-33h419v-32z m887-114a16 16 0 0 0-16-16h-387a16 16 0 0 0-17 16v292a16 16 0 0 0 17 17h80v-98h226v98h81a16 16 0 0 0 16-17z m-194 49h33v-33h-33z m129 0h32v-33h-32z m-65 0h32v-33h-32z m-65 65h162v-33h-162z m-460 677l-27-28h-156v-162h162v123l44 44z m-53-158h-98v98h91l-42-42-21 21-23-23 44-44 49 49z m-130-227h162v162h-162z m32 130h98v-97h-98z m-32-325h162v163h-162z m32 130h98v-97h-98z m193 422h129v-32h-129z m0-65h129v-32h-129z m0-65h129v-32h-129z m0-324h129v-33h-129z m0-65h129v-33h-129z" horiz-adv-x="1000" />

<glyph glyph-name="outlets" unicode="&#xe802;" d="M267 117h33v-34h-33z m100 0h33v-34h-33z m316 83a83 83 0 1 1 84 83 83 83 0 0 1-84-83z m134 0a50 50 0 1 0-50 50 50 50 0 0 0 50-50z m8-239c50 66 125 173 125 239a184 184 0 0 1-100 163v213a66 66 0 0 1 33 57v50a16 16 0 0 1-1 7l-32 80v63a17 17 0 0 1-17 17h-733a17 17 0 0 1-17-17v-63l-32-80a16 16 0 0 1-1-7v-50a66 66 0 0 1 33-57v-609a17 17 0 0 1 17-17h570c-22-9-37-23-37-42 0-40 70-58 134-58s133 18 133 58c0 29-35 46-75 53z m92 239c0-64-99-196-150-258-51 62-150 194-150 258a150 150 0 0 0 300 0z m-734 117v166h567v-100a183 183 0 0 1-125-66z m667 350v-34a33 33 0 1 0-67 0v34z m-733 150h700v-34h-700z m-6-67h711l20-50h-751z m639-83v-34a33 33 0 1 0-67 0v34z m-100 0v-34a33 33 0 1 0-67 0v34z m-100 0v-34a33 33 0 1 0-67 0v34z m-100 0v-34a33 33 0 1 0-67 0v34z m-100 0v-34a33 33 0 1 0-67 0v34z m-100 0v-34a33 33 0 1 0-67 0v34z m-167-34v34h67v-34a33 33 0 1 0-67 0z m234-650h-84v234h84z m116 0h-83v234h83z m34 0v250a17 17 0 0 1-17 17h-233a17 17 0 0 1-17-17v-250h-83v584a66 66 0 0 1 50 23 66 66 0 0 1 100 0 66 66 0 0 1 100 0 66 66 0 0 1 100 0 66 66 0 0 1 100 0 66 66 0 0 1 100 0 66 66 0 0 1 100 0 66 66 0 0 1 50-23v-191a171 171 0 0 1-34 7v117a17 17 0 0 1-16 17h-600a17 17 0 0 1-17-17v-200a17 17 0 0 1 17-17h437a182 182 0 0 1-21-83c0-59 60-151 109-217z m300-100c-64 0-98 19-100 25 1 5 23 18 66 23 12-14 20-24 21-25a17 17 0 0 1 25 0c2 1 10 11 22 25 43-5 64-18 66-22-2-7-36-26-100-26z" horiz-adv-x="1000" />

<glyph glyph-name="notification" unicode="&#xe803;" d="M784 325v150c1 114-76 190-142 220-19 9-39 16-59 20v10c0 46-37 83-83 83s-83-37-83-83v-11c-18-5-36-11-53-19-73-34-147-115-147-220v-150c0-106-38-198-112-271-4-5-6-11-4-17s7-11 13-12l158-27c30-5 57-9 82-13 30-57 87-93 149-93 63 0 120 36 149 93 25 4 52 8 82 13l158 27c6 1 11 6 13 12 2 6 0 12-4 17-78 77-117 168-117 271z m-334 400c0 28 22 50 50 50s50-22 50-50v-3c-33 5-67 5-100-1v4z m53-800c-42 0-82 21-107 55 37-4 72-6 107-6 35 0 70 2 107 6-25-34-65-55-107-55z m225 106c-32-6-61-10-89-14 0 0 0 0 0 0-12-1-24-3-36-4 0 0 0 0 0 0-11-1-21-2-31-2-2-1-4-1-6-1-9 0-18-1-27-1-1 0-3 0-5 0-21-1-41-1-62 0-2 0-4 0-6 0-8 0-17 1-26 1-2 0-4 0-6 1-10 0-20 1-30 2-1 0-1 0-1 0-12 1-24 3-36 4 0 0 0 0 0 0-28 4-57 8-89 14l-128 22c66 76 100 167 100 272v150c1 91 65 161 128 190 19 8 39 15 59 20 0 0 0 0 0 0 41 9 85 9 126 1 1 0 1 0 1 0 22-5 43-12 64-21 61-28 123-98 122-190v-150c0-101 37-194 106-272l-128-22z m-121 588c-65 30-144 30-208 0-36-16-98-66-99-144 0-9 7-17 17-17 0 0 0 0 0 0 9 0 16 8 16 17 1 61 51 101 80 114 56 26 124 26 180 0 9-4 18 0 22 8 4 9 0 19-8 22z m-527-149c-6 7-17 7-23 0-37-36-57-85-57-136 0-52 20-100 57-137 3-3 7-5 11-5s9 2 12 5c7 7 7 17 0 24-30 30-47 70-47 113 0 42 17 82 47 113 7 6 7 17 0 23z m58-240c5 0 9 2 12 5 7 7 7 17 0 24-42 42-42 112 0 154 7 7 7 17 0 24s-17 6-23 0c-56-56-56-146 0-202 3-3 7-5 11-5z m806 240c-7 7-17 7-24 0s-6-17 0-23c30-31 47-71 47-113 0-43-17-83-47-113-6-7-6-17 0-24 3-3 8-5 12-5s8 2 12 5c36 37 56 85 56 137 0 51-20 100-56 136z m-94-33c-7-7-7-17 0-24 42-42 42-112 0-154-7-7-7-17 0-24 3-3 7-5 12-5s8 2 11 5c56 56 56 146 0 202-6 6-17 6-23 0z" horiz-adv-x="1000" />

<glyph glyph-name="merchant" unicode="&#xe804;" d="M954-27h-17v435c38 24 63 66 63 114 0 3-1 5-2 8l-116 203c-8 14-24 23-40 23h-684c-16 0-32-9-40-23l-116-203c-1-3-2-5-2-8 0-48 25-90 63-114v-435h-17c-8 0-15-6-15-14 0-9 7-15 15-15h908c8 0 15 6 15 15 0 8-7 14-15 14z m-924 535h47c8 0 15 6 15 14 0 8-7 15-15 15h-37l104 181c3 6 8 9 14 9h684c6 0 11-3 14-9l104-181h-37c-8 0-15-7-15-15 0-8 7-14 15-14h47c-7-52-52-92-106-92-54 0-98 40-106 92h102c8 0 15 6 15 14 0 8-7 15-15 15h-720c-8 0-15-7-15-15 0-8 7-14 15-14h102c-7-52-52-92-106-92-54 0-98 40-106 92z m697 0c-7-52-52-92-106-92-53 0-98 40-105 92h211z m-243 0c-7-52-51-92-105-92-54 0-99 40-106 92h211z m346-535h-159v49h159v-49z m0 79h-159v268h159v-268z m78-79h-49v361c0 8-6 15-15 15h-187c-8 0-15-7-15-15v-361h-550v421c14-5 29-8 44-8 53 0 99 31 121 75 23-44 69-75 122-75 53 0 99 31 121 75 23-44 68-75 121-75 53 0 99 31 122 75 22-44 68-75 121-75 15 0 30 3 44 8v-421z m-330 376h-422c-8 0-15-7-15-15v-297c0-8 7-15 15-15h422c8 0 15 7 15 15v297c0 8-7 15-15 15z m-14-297h-394v268h394v-268z" horiz-adv-x="1000" />

<glyph glyph-name="member" unicode="&#xe805;" d="M882 387c-34 17-98 17-100 17-8 0-15-7-15-15 0-8 7-14 15-14 16 0 64-3 87-15 2-1 5-1 7-1 5 0 10 3 13 8 3 7 1 16-7 20z m73-209l-60 17c-3 1-5 4-5 6v20c5 4 10 8 14 12 22 21 33 48 33 78v28l6 11c7 13 10 28 10 42v76c0 8-6 14-15 14h-141c-51 0-93-42-93-93v-1c0-12 3-24 9-34l7-15v-24c0-38 19-72 47-93l0-21c0-3 0-4-12-8l-29-8-86 31c0 4-1 8-4 11l-27 29v48c3 2 6 5 8 7 35 32 55 78 55 125v39c10 22 15 46 15 71v156c0 9-6 15-14 15h-220c-77 0-140-63-140-140v-31c0-25 6-49 16-71v-33c0-55 24-105 63-137v-49l-28-29c-3-3-4-7-4-11l-90-33c-6-2-12-6-18-9l-14 7c42 18 55 44 56 45 2 4 2 9 0 13-11 21-12 60-13 91 0 10 0 20-1 29-5 70-59 123-124 123s-120-53-125-123c0-9-1-19-1-29-1-31-2-70-13-91-2-4-2-9 0-13 1-1 14-27 56-45l-39-20c-21-11-34-32-34-55v-108c0-9 7-15 15-15s14 6 14 15v108c0 12 7 23 18 29l49 24 17-16c12-11 27-17 43-17 15 0 30 6 42 17l17 16 16-8c-7-12-12-26-12-41v-112c0-9 7-15 15-15 8 0 15 6 15 15v112c0 20 12 39 31 46l95 34 40-59c5-8 13-13 22-14 1 0 2 0 3 0 8 0 16 3 21 9l25 24v-152c0-9 6-15 14-15 8 0 15 6 15 15v152l24-24c6-6 13-9 21-9 1 0 2 0 3 0 10 1 18 6 23 14l39 59 95-35c19-6 32-25 32-45v-112c0-9 6-15 14-15 9 0 15 6 15 15v112c0 21-8 40-22 54l4 1c4 1 9 2 14 5l37-37v-135c0-9 7-15 15-15 8 0 14 6 14 15v135l38 37c2-1 4-2 6-3l60-17c14-4 24-17 24-31v-121c0-9 6-15 14-15 8 0 15 6 15 15v121c0 27-18 52-45 59z m-861 26c-27 10-41 23-47 30 4 11 7 23 8 35 8-19 22-36 39-47v-18z m84-40c-13-12-32-12-45 0l-13 13c2 5 3 9 3 15v15c11-3 21-5 33-5 11 0 22 2 32 5l0-15c0-6 1-10 4-15l-14-13z m-22 68c-44 0-80 35-80 79 0 8-6 15-14 15-1 0-2-1-3-1 0 2 0 3 0 4 1 10 1 20 2 28 2 26 12 50 29 68 18 18 41 28 66 28s48-10 65-28c17-18 28-42 30-68 0-8 1-18 1-28 0-1 0-2 0-3-16 25-41 43-72 53-30 10-55 9-56 9-4 0-8-2-10-4l-27-28c-5-6-5-15 1-20s15-6 20 0l22 23c19-1 80-8 104-60-6-39-39-67-78-67z m61-28l0 17c17 12 31 29 39 48 2-12 4-24 8-35-6-7-19-20-47-30z m141 238v36c0 2 0 4-1 6-10 20-14 41-14 62v31c0 61 49 111 110 111h205v-142c0-21-5-42-14-62-1-2-2-4-2-6v-42c0-39-16-76-45-103-3-4-7-7-11-10 0 0 0 0 0 0-27-21-61-31-95-28-75 4-133 69-133 147z m83-295c0 0-1-1-1 0-1 0-1 0-1 0l-45 68 14 16 69-48-36-36z m59 56l-79 55v27c20-11 43-18 68-20 4 0 8 0 11 0 28 0 55 7 80 19v-26l-80-55z m61-56c0 0 0 0 0 0-1-1-1 0-1 0l-37 36 69 48 15-16-46-68z m268 12l-33 34c0 2 0 5 0 8l0 6c10-3 19-4 29-5 2 0 3 0 4 0 11 0 22 2 32 5v-6c0-3 0-6 1-8l-33-34z m55 95c-16-15-36-23-58-22-42 1-77 38-77 83v27c0 2 0 5-1 7l-9 18c-3 7-5 14-5 21v1c0 35 28 64 63 64h127v-61c0-10-3-20-7-28l-7-15c-1-2-2-5-2-7v-31c0-22-8-42-24-57z m39-148c-8 0-15-6-15-14v-94c0-9 7-15 15-15 8 0 14 6 14 15v94c0 8-6 14-14 14z m-846-19c-8 0-14-7-14-15v-74c0-9 6-15 14-15 8 0 15 6 15 15v74c0 8-7 15-15 15z m543 454c-55 55-171 44-218 37-15-2-26-15-26-30v-33c0-9 7-15 15-15 8 0 14 6 14 15v33c0 1 1 1 1 1 19 3 56 7 95 5 46-3 79-15 99-34 5-6 15-6 20 0 6 6 6 15 0 21z m-292-466c-8 0-15-7-15-15v-62c0-9 7-15 15-15 8 0 15 6 15 15v62c0 8-7 15-15 15z m345 0c-9 0-15-7-15-15v-62c0-9 6-15 15-15 8 0 14 6 14 15v62c0 8-6 15-14 15z" horiz-adv-x="1000" />

<glyph glyph-name="media" unicode="&#xe806;" d="M785 526a20 20 0 1 1 20-20 20 20 0 0 1-20 20z m156 78h-214l-62 124a58 58 0 0 1-52 32h-226a58 58 0 0 1-52-32l-62-124h-39v19a59 59 0 0 1-58 59h-39a59 59 0 0 1-59-58v-20h-19a59 59 0 0 1-59-59v-547a59 59 0 0 1 59-58h882a59 59 0 0 1 59 58v547a59 59 0 0 1-59 59z m-571 106a19 19 0 0 0 17 11h226a19 19 0 0 0 17-11l53-106h-366z m-253-87a20 20 0 0 0 20 20h39a20 20 0 0 0 19-20v-19h-78z m-78-214h247a254 254 0 0 1 0-274h-247z m461 78a215 215 0 1 0-215-215 215 215 0 0 0 215 215z m461-489a20 20 0 0 0-20-19h-882a20 20 0 0 0-20 19v98h278a254 254 0 0 1 366 0h278z m0 137h-247a254 254 0 0 1 0 274h247z m0 313h-278a254 254 0 0 1-366 0h-278v97a20 20 0 0 0 20 20h882a20 20 0 0 0 20-20z m-402 234h-118a20 20 0 1 1 0-39h118a20 20 0 0 1 0 39z m-59-234a176 176 0 1 1 176-176 176 176 0 0 1-176 176z m0-313a137 137 0 1 0 137 137 137 137 0 0 0-137-137z m0 235a98 98 0 0 1-98-98 20 20 0 1 1 39 0 59 59 0 0 0 59 59 20 20 0 0 1 0 39z m402 156h-39a20 20 0 1 1 0-39h39a20 20 0 0 1 0 39z" horiz-adv-x="1000" />

<glyph glyph-name="loyalty" unicode="&#xe807;" d="M742 12h-194c-9 0-16 7-16 16v225c0 4 2 9 5 12l146 133 57 88c14 23 41 34 67 29v201c0 33 31 63 67 63 34 0 62-28 62-63v-343c0-4-1-7-3-10l-175-228v-107c0-9-7-16-16-16z m-178 32h162v96c0 4 1 7 3 10l175 228v338c0 17-14 30-30 30-18 0-35-14-35-30v-216c10-9 17-20 20-32 5-18 3-38-7-53l-61-96c0-1-1-2-2-2l-104-113c-7-6-17-7-23-1-7 7-7 17-1 23l104 112 59 94c5 8 7 18 4 27-2 10-9 17-17 22-16 7-35 2-44-12l-58-90c-1-1-2-2-3-3l-142-130v-202z m0 0m-178-32h-194c-9 0-16 7-16 16v107l-175 228c-2 3-3 6-3 10v343c0 30 18 52 51 62 1 0 3 1 4 1 67 0 74-44 74-63v-200c24 2 47-9 60-30l57-88 153-133c3-3 6-8 6-12v-225c0-9-8-16-17-16z m-178 32h162v201l-149 131c-1 1-2 2-3 3l-58 90c-9 14-28 19-44 12-8-5-15-12-17-22-3-9-2-19 4-27l59-94 104-112c6-6 6-16-1-22-6-7-17-6-23 0l-105 113c0 0-1 1-1 2l-61 96c-10 15-13 35-7 53 4 15 14 29 27 38v210c0 15-5 30-39 30-23-7-26-20-26-30v-338l175-228c2-3 3-6 3-10v-96z m0 0m247 380c-2 0-4 0-6 1-231 97-255 239-257 252-2 9-13 76 23 126 21 29 53 46 96 50 45 5 81-4 110-28 16-14 27-30 34-46 8 16 19 32 35 46 28 24 65 33 110 28 42-4 75-21 96-50 36-50 24-117 23-126-2-13-26-155-257-252-2-1-4-1-7-1z m-122 398c-6 0-12 0-18-1-34-3-58-16-74-37-29-41-17-100-17-101 0 0 0-1 0-1 0-2 18-132 231-224 214 92 231 222 232 224 0 2 12 61-17 102-16 21-41 34-74 37-35 4-64-3-85-21-36-30-39-83-39-83-1-9-8-16-17-16-8 0-15 7-16 16 0 0-3 53-40 84-17 14-39 21-66 21z m0 0m296-123c-9 0-16 7-16 16 0 22-18 41-41 41-9 0-16 7-16 16 0 9 7 16 16 16 41 0 73-33 73-73 0-9-7-16-16-16z m0 0" horiz-adv-x="1000" />

<glyph glyph-name="e-voucher" unicode="&#xe808;" d="M0 633v-566h1000v566h-1000z m967-533h-934v500h934v-500z m-450 400v12c0 30-25 55-55 55-11 0-22-3-31-9l-86-58h-7l-86 57c-25 17-59 11-76-15-6-9-9-19-9-30v-12h-67v-100h33v-267h400v267h34v100h-50z m-317 12c0 12 10 21 22 21 4 0 8-1 12-3l44-30h-78v12z m117-345h-150v233h150v-233z m0 266h-184v34h184v-34z m133 97c10 6 23 4 30-6 2-4 3-8 3-12v-12h-78l45 30z m50-363h-150v233h150v-233z m33 266h-183v34h183v-34z m300 0h-33c-18 0-33 15-33 34s15 33 33 33h33c19 0 34-15 34-33h33c0 37-30 66-67 66v34h-33v-34c-37 0-67-29-67-66s30-67 67-67h33c19 0 34-15 34-33s-15-34-34-34h-33c-18 0-33 15-33 34h-34c0-37 30-67 67-67v-33h33v33c37 0 67 30 67 67s-30 66-67 66z" horiz-adv-x="1000" />

<glyph glyph-name="email-history" unicode="&#xe809;" d="M988-124v615c0 7-8 15-16 21l-161 116v129a21 21 0 0 1-21 22h-184l-93 68a23 23 0 0 1-24 0l-93-68h-184a21 21 0 0 1-21-22v-127l-163-119c-10-6-16-13-16-20v-620a21 21 0 0 1 20-21h934c14 0 22 11 22 26z m-41 577v-539l-352 282z m-15 37l-121-87v176l121-88z m-432 317l38-28h-75z m269-71v-364l-269-196-268 196v364h537z m-716-283l352-257-352-284z m138-52l-123 90 123 90z m-100-510l348 280 48-35a18 18 0 0 1 26 0l48 35 350-280h-820z" horiz-adv-x="1000" />

<glyph glyph-name="courier-service" unicode="&#xe80a;" d="M733 367h-166v16a150 150 0 0 1 83 134v50h17a50 50 0 0 1 50 50v16a50 50 0 0 1-3 17h53v33h-84v84a83 83 0 0 1-83 83h-200a83 83 0 0 1-83-83v-87a50 50 0 0 1-34-47v-16a50 50 0 0 1 50-50h17v-50a150 150 0 0 1 83-134v-16h-166a117 117 0 0 1-117-117v-50a17 17 0 0 1 17-17h16v-216a67 67 0 0 1 67-67 33 33 0 0 1 33-33h50a17 17 0 0 1 17-17h300a17 17 0 0 1 17 17h50a33 33 0 0 1 33 33 67 67 0 0 1 67 67v216h16a17 17 0 0 1 17 17v50a117 117 0 0 1-117 117z m-66 283a17 17 0 0 0 16-17v-16a17 17 0 0 0-16-17h-17v50z m-317-50h-17a17 17 0 0 0-16 17v16a17 17 0 0 0 16 17h17z m0 167a50 50 0 0 0 50 50h200a50 50 0 0 0 50-50v-84h-300z m33-250v133h234v-133a117 117 0 1 0-234 0z m184-184v-63l-32 7a67 67 0 0 1 32 56z m-34 38v-38a33 33 0 0 0-66 0v38a147 147 0 0 1 66 0z m-100-38a67 67 0 0 1 32-56l-32-7z m-100-433h-50v117h50z m300-17h-266v217h83v-33a17 17 0 0 1 21-16l66 16a17 17 0 0 1 13 16v17h83z m-266 250v17h83v-17z m116-45v62h34v-54z m150 45h-83v17h83z m84-233h-50v117h50z m100 317h-117v16h-33v-33a17 17 0 0 1 16-17h100v-216a33 33 0 0 0-33-34v84a33 33 0 0 1-33 33h-50v117a17 17 0 0 1-17 16h-300a17 17 0 0 1-17-16v-117h-50a33 33 0 0 1-33-33v-84a33 33 0 0 0-33 34v216h100a17 17 0 0 1 16 17v33h-33v-16h-117v33a83 83 0 0 0 84 83h133v-83a17 17 0 0 1 17-17 23 23 0 0 1 3 1l80 16 80-16a23 23 0 0 1 3-1 17 17 0 0 1 17 17v83h133a83 83 0 0 0 84-83z" horiz-adv-x="1000" />

<glyph glyph-name="point-transaction-rp" unicode="&#xe80b;" d="M666 118l-38 54c22 8 35 27 35 52 0 35-25 56-67 56h-63v-162h23v49h40c3 0 7 1 10 1l35-50z m-71 69h-39v73h39c30 0 45-13 45-36s-15-37-45-37z m165 55c-18 0-34-7-44-21v20h-21v-168h22v64a52 52 0 0 1 43-20c36 0 62 25 62 62 0 38-26 63-62 63z m-2-106c-23 0-41 17-41 43 0 26 18 43 41 43 24 0 42-17 42-43 0-26-18-43-42-43z m122 189a254 254 0 0 1-103 92 20 20 0 1 1-17-35 216 216 0 0 0 121-193 215 215 0 0 0-25-101 20 20 0 1 1 35-18 254 254 0 0 1 29 119 252 252 0 0 1-40 136z m-182 117h-2a20 20 0 1 1 0-39h2a20 20 0 0 1 0 39z m-124-447a215 215 0 0 0-96 294 20 20 0 1 1-35 19 253 253 0 0 1 115-348 20 20 0 1 1 16 35z m64-21h-1a20 20 0 0 1 0-39h1a20 20 0 1 1 0 39z m118 534a89 89 0 0 1-9 16h51a90 90 0 0 1 0 179h-156a90 90 0 0 1-74 140h-478a90 90 0 0 1 0-179h156a89 89 0 0 1 0-101h-50a90 90 0 0 1-56-160 89 89 0 0 1 0-140 89 89 0 0 1 0-140 90 90 0 0 1 56-160h229a331 331 0 1 1 331 545z m42 156a51 51 0 1 0 0-101h-478a51 51 0 1 0 0 101z m-708 39a51 51 0 0 0 0 101h478a51 51 0 1 0 0-101z m106-179h477a51 51 0 0 0 22-5c-9 1-18 1-28 1a330 330 0 0 1-234-97h-237a51 51 0 1 0 0 101z m0-140h203a330 330 0 0 1-50-102h-153a51 51 0 1 0 0 102z m0-141h144a331 331 0 0 1-1-101h-143a51 51 0 0 0 0 101z m0-241a51 51 0 1 0 0 101h151a330 330 0 0 1 47-101z m471-106a292 292 0 1 0 292 293 293 293 0 0 0-292-292z" horiz-adv-x="1000" />

<glyph glyph-name="banner" unicode="&#xe80c;" d="M950 767h-900a49 49 0 0 1-50-50v-734a49 49 0 0 1 50-50h900a49 49 0 0 1 50 50v734a49 49 0 0 1-50 50z m-900-34h900a16 16 0 0 0 17-16v-84h-934v84a16 16 0 0 0 17 16z m900-766h-900a16 16 0 0 0-17 16v617h934v-617a16 16 0 0 0-17-16z m0 0m-883 733h33v-33h-33z m0 0m66 0h34v-33h-34z m0 0m67 0h33v-33h-33z m0 0m83 0h650v-33h-650z m0 0m417-700h233v567h-233z m33 533h167v-500h-167z m0 0m34-466h100v83h-100z m33 50h33v-17h-33z m0 0m-733-117h600v267h-600z m33 233h533v-200h-533z m0 0m267-150h233v100h-233z m33 67h167v-33h-167z m0 0m-267 33h200v-33h-200z m0 0m0-66h200v-34h-200z m0 0m634 333h100v-33h-100z m0 0m0-67h100v-33h-100z m0 0m-684 184h100v-34h-100z m0 0m0-67h134v-33h-134z m0 0m167 0h417v-33h-417z m0 0m-167-67h350v-33h-350z m0 0m384 0h200v-33h-200z m0 0m-384-66h184v-34h-184z m0 0m217 0h200v-34h-200z m0 0m233 0h134v-34h-134z m0 0" horiz-adv-x="1000" />

<glyph glyph-name="articles" unicode="&#xe80d;" d="M697 732h-140a138 138 0 0 1-136 118h-26a138 138 0 0 1-136-118h-139a59 59 0 0 1-60-59v-764a59 59 0 0 1 60-59h577a59 59 0 0 1 59 59v764a59 59 0 0 1-59 59z m-302 79h26a99 99 0 0 0 96-79h-218a99 99 0 0 0 96 79z m302-119a20 20 0 0 0 19-19v-764a20 20 0 0 0-19-20h-577a20 20 0 0 0-20 20v764a20 20 0 0 0 20 19z m-70-51h-437a20 20 0 0 1-20-20v-177a20 20 0 0 1 20-20h437a20 20 0 0 1 19 20v177a20 20 0 0 1-19 20z m-20-177h-397v137h397z m-411-136h212c25 0 25 39 0 39h-212c-26 0-26-39 0-39z m431-341h-115c-26 0-26-39 0-39h115c25 0 25 39 0 39z m0 285h-431c-26 0-26-39 0-39h431c25 0 25 39 0 39z m0-95h-431c-26 0-26-39 0-39h431c25 0 25 39 0 39z m0-95h-431c-26 0-26-39 0-39h431c25 0 25 39 0 39z m313 395a73 73 0 1 1-147 0v-137c0-25 40-25 40 0v33h67v-359h-67v167c0 25-40 25-40 0v-187c0-2 2-5 2-7l53-125a20 20 0 0 1 37 0l53 125c0 2 2 5 2 7z m-107-65v65a34 34 0 1 0 67 0v-65z m33-492l-23 55h47z m-71 333a20 20 0 1 1 7 24 20 20 0 0 1-7-24z m-344-278a20 20 0 1 1-11-26 20 20 0 0 1 11 26z" horiz-adv-x="1000" />

<glyph glyph-name="versioning" unicode="&#xe80e;" d="M833 391v409a50 50 0 0 1-50 50h-733a50 50 0 0 1-50-50v-733a50 50 0 0 1 50-50h409a283 283 0 1 1 374 374z m-783 426h733a17 17 0 0 0 17-17v-83h-767v83a17 17 0 0 0 17 17z m0-767a17 17 0 0 0-17 17v616h767v-279a283 283 0 0 1-354-354z m667-167a250 250 0 1 0 250 250 250 250 0 0 0-250-250z m-650 900h33v-33h-33z m66 0h34v-33h-34z m67 0h33v-33h-33z m533 0h34v-33h-34z m124-535l-133 67a17 17 0 0 1-15 0l-133-67a17 17 0 0 1-9-15v-72a216 216 0 0 1 102-184l39-24a17 17 0 0 1 18 0l39 24a216 216 0 0 1 102 184v72a17 17 0 0 1-10 15z m-24-87a182 182 0 0 0-86-156l-30-19-31 19a182 182 0 0 0-86 156v62l117 58 116-58z m-166-3l-23-23 47-47a17 17 0 0 1 23 0l84 83-23 24-73-72z" horiz-adv-x="1000" />

<glyph glyph-name="package-bundle" unicode="&#xe80f;" d="M960 629l-454 220a15 15 0 0 1-12 0l-454-220a15 15 0 0 1-9-13v-532a15 15 0 0 1 9-13l454-220a15 15 0 0 1 12 0l454 220a15 15 0 0 1 9 13v532a15 15 0 0 1-9 13z m-460 190l420-203-121-59a15 15 0 0 1-3 2l-417 201z m-155-75l420-203-86-41-419 202z m430-230v-154l-80-39v154z m164-421l-424-205v500l101 49a15 15 0 0 1-13 26l-103-50-41 20a15 15 0 1 1-12-26l38-19v-500l-424 205v500l323-156a15 15 0 1 1 13 26l-317 153 145 70 440-212c0 0 0 0 0 0v-176a15 15 0 0 1 21-13l110 53a15 15 0 0 1 8 13v177l135 65v-500z m-757 57l-67 32a15 15 0 1 1-13-26l67-32a15 15 0 1 1 13 26z m61 40l-128 62a15 15 0 1 1-13-27l128-62a15 15 0 1 1 13 27z" horiz-adv-x="1000" />

<glyph glyph-name="payment-gateway" unicode="&#xe810;" d="M917 850h-834a83 83 0 0 1-83-83v-600a83 83 0 0 1 83-84h295l-40-133h-71a17 17 0 0 1-17-17 83 83 0 0 1 83-83h334a83 83 0 0 1 83 83 17 17 0 0 1-17 17h-71l-40 133h295a83 83 0 0 1 83 84v600a83 83 0 0 1-83 83z m-834-33h834a50 50 0 0 0 50-50v-517h-934v200h250v-17a50 50 0 0 1 50-50h318a117 117 0 1 1 132 132v152a50 50 0 0 1-50 50h-296l-130 65a17 17 0 0 1-12 1l-114-33h-148v17a50 50 0 0 0 50 50z m568-400h-318a17 17 0 0 0-16 16v17h58a58 58 0 0 1 58 58 58 58 0 0 1-5 25h322v-18a117 117 0 0 1-99-98z m-334 183h433v-33h-433z m450-117a83 83 0 1 0-84-83 83 83 0 0 0 84 83z m-17 150h-433v34a17 17 0 0 0 16 16h400a17 17 0 0 0 17-16z m-417 84a50 50 0 0 1-50-50v-100h-33v-34h125a25 25 0 1 0 0-50h-342v234h150a16 16 0 0 1 5 0l110 32 65-32z m334-834h-334a50 50 0 0 0-47 34h428a50 50 0 0 0-47-34z m-39 67h-256l40 133h176z m289 167h-834a50 50 0 0 0-50 50v50h934v-50a50 50 0 0 0-50-50z m-167 233a17 17 0 0 1 12 5l67 67-24 23-55-55-21 22-24-24 33-33a17 17 0 0 1 12-5z m-300 150h33v-33h-33z m67 0h33v-33h-33z m66 0h34v-33h-34z" horiz-adv-x="1000" />

<glyph glyph-name="points-transactions" unicode="&#xe811;" d="M668 209c-24 0-43 16-43 37s19 37 43 37 43-17 43-37a20 20 0 0 1 39 0c0 36-27 66-63 74v10a20 20 0 0 1-39 0v-10c-35-8-62-38-62-74 0-42 37-76 82-76 24 0 43-17 43-38s-19-37-43-37-43 17-43 37a20 20 0 1 1-39 0c0-35 27-65 62-74v-8a20 20 0 0 1 39 0v8c36 9 63 39 63 74 0 43-37 77-82 77z m214 116a255 255 0 0 1-104 92 20 20 0 1 1-17-35 215 215 0 0 0 97-295 20 20 0 1 1 34-18 254 254 0 0 1 30 119 253 253 0 0 1-40 137z m-183 117h-2a20 20 0 1 1 0-39h2a20 20 0 0 1 0 39z m-124-448a215 215 0 0 0-97 295 20 20 0 0 1-34 18 254 254 0 0 1 114-348 20 20 0 1 1 17 35z m64-21h-1a20 20 0 0 1-1-39h2a20 20 0 0 1 0 39z m118 535a90 90 0 0 1-9 16h51a90 90 0 0 1 0 180h-157a90 90 0 0 1-74 140h-478a90 90 0 1 1 0-179h156a90 90 0 0 1 0-102h-51a90 90 0 0 1-55-160 90 90 0 0 1 0-141 90 90 0 0 1 0-140 90 90 0 0 1 55-161h231a332 332 0 1 1 331 547z m42 157a51 51 0 1 0 0-102h-479a51 51 0 1 0 0 102z m-709 39a51 51 0 1 0 0 101h478a51 51 0 1 0 0-101z m105-180h479a51 51 0 0 0 22-5q-14 1-28 1a331 331 0 0 1-235-98h-238a51 51 0 1 0 0 102z m0-141h205a331 331 0 0 1-50-101h-155a51 51 0 1 0 0 101z m0-140h146a332 332 0 0 1-2-102h-144a51 51 0 1 0 0 102z m0-243a51 51 0 1 0 0 102h152a331 331 0 0 1 47-102z m473-105a293 293 0 1 0 293 293 293 293 0 0 0-293-293z" horiz-adv-x="1000" />

<glyph glyph-name="product" unicode="&#xe812;" d="M350 517c0 34-13 68-38 92 37 15 80 7 108-21l23 24c-42 42-108 50-160 20-41 24-92 24-133 0-41-24-67-68-67-115v-67h-66c-9 0-17-7-17-17v-566c0-10 8-17 17-17h350v33h-200v534h50v-67h33v67h117v33h-17z m-253-541c-3 4-8 7-14 7s-10-3-13-7l-37-54v456l37-54c3-4 8-7 13-7s11 3 14 7l36 54v-456z m22-93h-71l35 54z m-36 480l-35 54h71z m34 87v67c0 33 16 64 44 83 27 18 63 22 93 9-24-24-37-58-37-92v-67z m133 67c0 28 12 55 33 74 22-19 34-46 34-74v-67h-67z m0 0m282 109c1 2 1 5 1 7v117h67v-117c0-2 1-5 2-7l100-200 30 15-99 196v196c0 10-7 17-16 17h-100c-9 0-17-7-17-17v-196l-98-196c-1-2-2-5-2-8v-566c0-10 8-17 17-17h116v33h-100v546z m68 191v-34h-67v34z m0 0m398-608l-65 112v62c0 10-7 17-16 17h-267c-9 0-17-7-17-17v-62l-64-113c-2-2-2-5-2-8v-333c0-10 7-17 16-17h400c10 0 17 7 17 17v333c0 3-1 6-2 9z m-43 8h-76l38 66z m-288 150h233v-34h-233z m-7-67h228l-48-83h-228z m173-417h-233v300h233z m134 0h-100v300h100z m0 0" horiz-adv-x="1000" />

<glyph glyph-name="promo-code" unicode="&#xe813;" d="M50 67h900a50 50 0 0 1 50 50v466a50 50 0 0 1-50 50h-900a50 50 0 0 1-50-50v-466a50 50 0 0 1 50-50z m-17 50v266h70a53 53 0 0 1 68-30l13 4-112-112a17 17 0 0 1 7-28l63-15 46-47a17 17 0 0 1 27 5l18 42v-102h-183a17 17 0 0 0-17 17z m69 366a52 52 0 0 1 13-22l11-11-11-11a52 52 0 0 1-13-22h-69v66z m60-21l-23 23a19 19 0 0 0 20 31l74-27v-22h-33v-34h33v-21l-74-28a19 19 0 0 0-20 31l23 23a17 17 0 0 1 0 24z m276-24l23-23a19 19 0 0 0-20-31l-74 28v21h33v34h-33v22l74 27a19 19 0 0 0 20-31l-23-23a17 17 0 0 1 0-24z m-105-21h-66v66h66z m-58-34l-81-187-32 33a17 17 0 0 1-8 4l-38 9 141 141z m-8-103l33 78 33-78v-180h-66z m58 103h18l141-141-38-9a17 17 0 0 1-8-4l-32-33z m8 134h-66v83h66z m634 66v-66h-284v-34h284v-66h-284v-34h284v-266a17 17 0 0 0-17-17h-300v33h-33v-33h-250v102l18-42a17 17 0 0 1 27-5l47 47 62 15a17 17 0 0 1 8 28l-113 112 13-4a53 53 0 0 1 68 30h86v34h-85a52 52 0 0 1-13 22l-11 11 11 11a52 52 0 0 1 13 22h85v34h-86a53 53 0 0 1-68 30l-62-23v76h250v-33h33v33h300a17 17 0 0 0 17-17z m-917 17h183v-76l-62 23a53 53 0 0 1-68-30h-70v66a17 17 0 0 0 17 17z m567-67h33v-66h-33z m0-100h33v-66h-33z m0-100h33v-66h-33z m0-100h33v-66h-33z m88-71l183 183 24-23-184-184z m28 88a50 50 0 1 1-50 50 50 50 0 0 1 50-50z m0 67a17 17 0 1 0-16-17 17 17 0 0 0 16 17z m100-134a50 50 0 1 1 50 50 50 50 0 0 1-50-50z m67 0a17 17 0 1 0-17 17 17 17 0 0 0 17-17z" horiz-adv-x="1000" />

<glyph glyph-name="promotion" unicode="&#xe814;" d="M268 221a20 20 0 1 1-27 7 20 20 0 0 1 27-7z m0 0m-80-135l98-170a78 78 0 1 1 135 78l-58 102 50 29a20 20 0 0 1 8 27l-26 44c3 0 23 4 374 73a59 59 0 0 1 48 88l-65 112 41 63a20 20 0 0 1 1 21l-39 67a20 20 0 0 1-18 10l-75-5-72 125a58 58 0 0 1-50 30h-1a58 58 0 0 1-50-28l-255-325-166-95a137 137 0 0 1 120-246z m199-112a39 39 0 1 0-67-39l-98 170 68 39 97-170z m-44 155l-19 34 33 20 20-34z m384 461l27-47-24-36-47 81z m-205 141a20 20 0 0 0 34 0l227-394a20 20 0 0 0-17-29 72 72 0 0 1-10-2l-241 416c5 7 6 7 7 9z m-33-42l226-391-341-67-103 180z m-437-525a98 98 0 0 0 36 134l152 88 98-169-152-88a98 98 0 0 0-134 35z m0 0m155 45a20 20 0 0 1-27 7l-33-20a20 20 0 0 0-27 8 20 20 0 0 1-34-20 59 59 0 0 1 80-21l34 19a20 20 0 0 1 7 27z m0 0m764 529l-109-61a20 20 0 0 1 19-34l109 61a20 20 0 1 1-19 34z m0 0m-11-203l-76 21a20 20 0 0 1-10-38l75-20a20 20 0 1 1 11 37z m0 0m-190 274l-20-76a20 20 0 1 1 37-10l21 76a20 20 0 1 1-38 10z m0 0" horiz-adv-x="1000" />

<glyph glyph-name="report" unicode="&#xe815;" d="M867 783c0 0 0 0 0 0h-217v50c0 10-7 17-17 17 0 0 0 0 0 0h-266c-9 0-17-7-17-17 0 0 0 0 0 0v-50h-217c-9 0-16-7-16-16 0 0 0 0 0 0v-900c0-10 7-17 16-17 0 0 0 0 0 0h734c9 0 16 7 16 17 0 0 0 0 0 0v900c0 9-7 16-16 16z m-484 34h234v-100h-234v100z m467-934h-700v867h200v-50c0-9 8-17 17-17 0 0 0 0 0 0h266c10 0 17 8 17 17 0 0 0 0 0 0v50h200v-867z m-550 484c0 0 0 0 0 0h-100c-9 0-17-8-17-17 0 0 0 0 0 0v-217c0-9 8-16 17-16 0 0 0 0 0 0h100c9 0 17 7 17 16 0 0 0 0 0 0v217c0 9-8 17-17 17z m-17-217h-66v183h66v-183z m184 283c0 0 0 0 0 0h-100c-9 0-17-7-17-16 0 0 0 0 0 0v-284c0-9 8-16 17-16 0 0 0 0 0 0h100c9 0 16 7 16 16 0 0 0 0 0 0v284c0 9-7 16-16 16z m-17-283h-67v250h67v-250z m183 350c0 0 0 0 0 0h-100c-9 0-16-7-16-17 0 0 0 0 0 0v-350c0-9 7-16 16-16 0 0 0 0 0 0h100c10 0 17 7 17 16 0 0 0 0 0 0v350c0 10-7 17-17 17z m-16-350h-67v317h67v-317z m183 417c0 0 0 0 0 0h-100c-9 0-17-8-17-17 0 0 0 0 0 0v-417c0-9 8-16 17-16 0 0 0 0 0 0h100c9 0 17 7 17 16 0 0 0 0 0 0v417c0 9-8 17-17 17z m-17-417h-66v383h66v-383z m14 533l-167-33c-2-1-4-2-6-3l-146-97h-145c-3 0-6-1-8-2l-134-84 18-28 129 81h145c4 0 7 1 10 3l147 98 163 32-6 33z" horiz-adv-x="1000" />

<glyph glyph-name="e-voucher-rp" unicode="&#xe816;" d="M0 850v-1000h1765v1000z m1706-941h-1647v882h1647z m-794 706v20a97 97 0 0 1-151 81l-152-101h-12l-152 101a97 97 0 0 1-151-81v-20h-117v-177h58v-470h706v470h59v177z m-559 20a38 38 0 0 0 60 32l78-52h-138z m206-608h-265v411h265z m0 470h-324v59h324z m234 170a38 38 0 0 0 60-32v-20h-138z m89-640h-264v411h264z m59 470h-323v59h323z m491-526v73h224v-73z m-145 145v36h369v-36z m-36 109v36h405v-36z m36 108v44h369v-44z m160 302q0-51-40-65l53-75h-57l-47 66h-32v-66h-47v209h80q48 0 69-17t21-52z m-89-33a50 50 0 0 1 33 8 32 32 0 0 1 8 24 27 27 0 0 1-8 24 58 58 0 0 1-32 6h-35v-62z m221 66a62 62 0 0 0 46-21 77 77 0 0 0 21-55 79 79 0 0 0-21-55 63 63 0 0 0-48-23 53 53 0 0 0-44 22v-73h-41v203h41v-17a62 62 0 0 0 46 19z m-46-77a43 43 0 0 1 10-30 32 32 0 0 1 25-11 34 34 0 0 1 25 11 41 41 0 0 1 11 30 45 45 0 0 1-11 30 32 32 0 0 1-25 12 31 31 0 0 1-25-12 45 45 0 0 1-10-30z" horiz-adv-x="1765" />

<glyph glyph-name="shopping-cart" unicode="&#xe817;" d="M63 767h83a63 63 0 0 0 59-43c37-6 48-29 54-50l20-74h700a21 21 0 0 0 20-26l-22-83a21 21 0 0 0-20-16h-18l-51-193c0 0 0 0 0 0-1-1-1-1-1-1s0-1 0-1 0-1 0-1a20 20 0 0 0-2-3l0 0c-1-1-1-1-1-2l-1 0q0-1-1-1l0-1c0 0-1 0-1 0 0-1 0-1-1-1 0 0 0 0-1-1a6 6 0 0 0 0 0c-1 0-1-1-2-1 0 0 0 0 0 0-1 0-1-1-1-1-1 0-1 0-1 0-1 0-1 0-1 0l-1-1c0 0-1 0-1 0l-1 0a21 21 0 0 0-2 0l-490-40 11-44h444a21 21 0 1 0 0-41h-58l12-44a83 83 0 0 0-16-165h-105a21 21 0 1 0 0 42h32a83 83 0 0 0 47 121l-13 46h-258l-12-46a83 83 0 0 0-26-163h-208a21 21 0 1 0 0 42h136a83 83 0 0 0 55 123l12 44h-58c0 0-1 0-2 0l0 0c-1 0-1 0-2 0l0 0c-1 0-1 0-1 1-1 0-1 0-1 0s-1 0-1 0-1 0-1 0c0 1-1 1-1 1-1 0-1 0-1 1s-1 0-1 0-1 0-1 1a9 9 0 0 0-1 0c0 0 0 1 0 1 0 0-1 0-1 1 0 0 0 0-1 0 0 0 0 1 0 1l-1 0q0 1-1 2c0 0 0 0 0 0 0 1-1 1-1 1 0 1 0 1 0 1s-1 1-1 1 0 1 0 1 0 1 0 1q-1 0-1 1a1 1 0 0 1 0 0l-22 83a1 1 0 0 1 0 0l-63 235h-17a21 21 0 0 0-21 15l-22 84a21 21 0 0 0 20 26h7l-17 64c-3 9-5 15-15 18a63 63 0 0 0-58-40h-83a63 63 0 1 0 0 125z m667-750a42 42 0 0 1 41-42h1a42 42 0 0 1 0 83h0a42 42 0 0 1-42-41z m-335 0a42 42 0 0 1 42-42h0a42 42 0 1 1 0 83h0a42 42 0 0 1-42-41z m-72 416h234a21 21 0 1 0 0-41h-222l11-42h109a21 21 0 1 0 0-42h-98l11-40 483 39 45 168h-584z m-55 84h673l11 41h-696z m-205 166h83a21 21 0 1 1 0 42h-83a21 21 0 0 1 0-42z m576-291h-13a21 21 0 1 0 0 41h13a21 21 0 1 0 0-41z" horiz-adv-x="1000" />

<glyph glyph-name="order-history-merchant" unicode="&#xe818;" d="M936 656h-227a210 210 0 0 1-418 0h-227a65 65 0 0 1-64-64v-581a65 65 0 0 1 64-64h307v-97h258v97h307a65 65 0 0 1 64 64v581a65 65 0 0 1-64 64z m32-64v-32h-387v32a32 32 0 0 0 32 32h323a32 32 0 0 0 32-32z m-315-275a49 49 0 0 1-24-2v17a48 48 0 0 1-48 50v145h387v-419h-274v160a50 50 0 0 1-41 49z m-170 183a48 48 0 0 1-31 11v81a64 64 0 0 1-64 64 113 113 0 0 0 224 0 64 64 0 0 1-64-64v-190a46 46 0 0 1-24 12 49 49 0 0 1-24-2v51a48 48 0 0 1-17 37z m-177-231v-161h-274v419h387v-29a51 51 0 0 1-16-37v-184a96 96 0 0 1-64 25 32 32 0 0 1-32-33z m194 549a178 178 0 0 0 177-162h-33a145 145 0 0 1-288 0h-33a178 178 0 0 0 177 162z m-436-194h323a32 32 0 0 0 32-32v-32h-387v32a32 32 0 0 0 32 32z m-32-613v65h274v-10a81 81 0 0 1 18-50l30-37h-290a32 32 0 0 0-32 32z m565-129h-194v87l-54 67a49 49 0 0 0-10 30v203a65 65 0 0 0 64-64v-64h33v320a18 18 0 0 0 13 18 16 16 0 0 0 13-4 16 16 0 0 0 6-12v-323h32v226a16 16 0 0 0 19 16 18 18 0 0 0 13-18v-224h32v194a16 16 0 0 0 6 12 16 16 0 0 0 14 4 18 18 0 0 0 13-18v-192h32v129a16 16 0 0 0 6 13 16 16 0 0 0 13 3 18 18 0 0 0 13-17v-202a49 49 0 0 0-10-30l-54-67z m339 97h-290l30 37a81 81 0 0 1 18 50v10h274v-65a32 32 0 0 0-32-32z m0 0m-726 371h32a16 16 0 0 0 16-16h32a48 48 0 0 1-48 48v33h-32v-33a48 48 0 1 1 0-96h32a16 16 0 0 0 0-33h-32a16 16 0 0 0-16 16h-33a48 48 0 0 1 49-48v-32h32v32a48 48 0 0 1 0 97h-32a16 16 0 1 0 0 32z m0 0m580-97h-32a16 16 0 0 0-16 16h-32a48 48 0 0 1 48-48v-32h32v32a48 48 0 1 1 0 97h-32a16 16 0 1 0 0 32h32a16 16 0 0 0 17-16h32a48 48 0 0 1-49 48v33h-32v-33a48 48 0 0 1 0-96h32a16 16 0 1 0 0-33z m0 0m-629-209h129v-33h-129z m0 0m549 0h129v-33h-129z m0 0" horiz-adv-x="1000" />

<glyph glyph-name="product-list-merchant" unicode="&#xe819;" d="M1038 565l-1 0-214 191a20 20 0 0 1-7 4l-155 55a20 20 0 0 1-27-18c0-4-7-108-110-109-104 2-111 105-111 109a20 20 0 0 1-27 18l-155-56a20 20 0 0 1-7-4l-212-190a20 20 0 0 1-1-28l1-1 169-171v-469a20 20 0 0 1 20-21h646a20 20 0 0 1 21 21v469l169 171a20 20 0 0 1 1 29z m-171-142v94a20 20 0 1 1-41 0v-600h-605v600a20 20 0 1 1-41 0v-95l-125 127 194 174 127 46a150 150 0 0 1 295 0l128-46 193-174z" horiz-adv-x="1047" />

<glyph glyph-name="order-history-merchant-1" unicode="&#xe81a;" d="M936 656h-227a210 210 0 0 1-418 0h-227a65 65 0 0 1-64-64v-581a65 65 0 0 1 64-64h307v-97h258v97h307a65 65 0 0 1 64 64v581a65 65 0 0 1-64 64z m32-64v-32h-387v32a32 32 0 0 0 32 32h323a32 32 0 0 0 32-32z m-315-275a49 49 0 0 1-24-2v17a48 48 0 0 1-48 50v145h387v-419h-274v160a50 50 0 0 1-41 49z m-170 183a48 48 0 0 1-31 11v81a64 64 0 0 1-64 64 113 113 0 0 0 224 0 64 64 0 0 1-64-64v-190a46 46 0 0 1-24 12 49 49 0 0 1-24-2v51a48 48 0 0 1-17 37z m-177-231v-161h-274v419h387v-29a51 51 0 0 1-16-37v-184a96 96 0 0 1-64 25 32 32 0 0 1-32-33z m194 549a178 178 0 0 0 177-162h-33a145 145 0 0 1-288 0h-33a178 178 0 0 0 177 162z m-436-194h323a32 32 0 0 0 32-32v-32h-387v32a32 32 0 0 0 32 32z m-32-613v65h274v-10a81 81 0 0 1 18-50l30-37h-290a32 32 0 0 0-32 32z m565-129h-194v87l-54 67a49 49 0 0 0-10 30v203a65 65 0 0 0 64-64v-64h33v320a18 18 0 0 0 13 18 16 16 0 0 0 13-4 16 16 0 0 0 6-12v-323h32v226a16 16 0 0 0 19 16 18 18 0 0 0 13-18v-224h32v194a16 16 0 0 0 6 12 16 16 0 0 0 14 4 18 18 0 0 0 13-18v-192h32v129a16 16 0 0 0 6 13 16 16 0 0 0 13 3 18 18 0 0 0 13-17v-202a49 49 0 0 0-10-30l-54-67z m339 97h-290l30 37a81 81 0 0 1 18 50v10h274v-65a32 32 0 0 0-32-32z m0 0m-726 371h32a16 16 0 0 0 16-16h32a48 48 0 0 1-48 48v33h-32v-33a48 48 0 1 1 0-96h32a16 16 0 0 0 0-33h-32a16 16 0 0 0-16 16h-33a48 48 0 0 1 49-48v-32h32v32a48 48 0 0 1 0 97h-32a16 16 0 1 0 0 32z m0 0m580-97h-32a16 16 0 0 0-16 16h-32a48 48 0 0 1 48-48v-32h32v32a48 48 0 1 1 0 97h-32a16 16 0 1 0 0 32h32a16 16 0 0 0 17-16h32a48 48 0 0 1-49 48v33h-32v-33a48 48 0 0 1 0-96h32a16 16 0 1 0 0-33z m0 0m-629-209h129v-33h-129z m0 0m549 0h129v-33h-129z m0 0" horiz-adv-x="1000" />

<glyph glyph-name="my-money-merchant" unicode="&#xe81b;" d="M501 850a500 500 0 1 1 500-500 501 501 0 0 1-500 500z m0-945a445 445 0 1 0 445 445 445 445 0 0 0-445-445z m12 649a93 93 0 0 0 90-69 28 28 0 0 1 54 13 149 149 0 0 1-122 109v35a28 28 0 1 1-55 0v-35a123 123 0 0 1-66-33 151 151 0 0 1-41-106 129 129 0 0 1 109-123l5-1 14-3c2 0 8-2 10-3a20 20 0 0 0 2 0l1-1 9-3a23 23 0 0 0 2-1c4-2 5-3 8-5l5-2 0-1 1-1c9-5 54-35 56-78a77 77 0 0 0-21-60 102 102 0 0 0-129-7 70 70 0 0 0-32 48 28 28 0 1 1-55-6c8-66 71-107 122-115v-30a28 28 0 1 1 55 0v31a151 151 0 0 1 78 40 132 132 0 0 1 37 102c-3 69-63 111-82 122l-2 2-5 3c-4 2-6 3-11 6a78 78 0 0 1-7 3l-8 3a75 75 0 0 1-8 3c-6 2-11 3-15 4l-14 3-6 1a73 73 0 0 0-64 69 94 94 0 0 0 25 67 78 78 0 0 0 60 19z" horiz-adv-x="1001" />

<glyph glyph-name="icon-balance-increase" unicode="&#xe81c;" d="M442 206a316 316 0 1 1-316 316 316 316 0 0 1 316-316z m0 589a274 274 0 1 0-274-273 274 274 0 0 0 274 273z m10-358h-73a21 21 0 1 1 0-42h42v-21a21 21 0 0 1 42 0v22a74 74 0 0 1-11 147h-21a32 32 0 0 0 0 63h74a21 21 0 0 1 0 42h-42v21a21 21 0 0 1-42 0v-22a74 74 0 0 1 10-146h21a32 32 0 0 0 0-64z m411-189h-169a21 21 0 0 1 0-42h118l-265-265-153 154a21 21 0 0 1-30 0l-232-232a21 21 0 1 1 30-30l217 217 153-153a21 21 0 0 1 30 0l280 279v-117a21 21 0 1 1 42 0v168a21 21 0 0 1-21 21z" horiz-adv-x="1000" />

<glyph glyph-name="icon-withdrawal-request" unicode="&#xe81d;" d="M1215 850h-1163a52 52 0 0 1-52-52v-513a52 52 0 0 1 52-53h325c-4 2-8 3-11 4-13 6-16 21-11 33h-303a16 16 0 0 0-15 16v513a16 16 0 0 0 15 15h1163a16 16 0 0 0 15-15v-513a16 16 0 0 0-15-16h-311a29 29 0 0 0 6-37h305a52 52 0 0 1 52 53v513a52 52 0 0 1-52 52z m-189-188h-790a31 31 0 0 1-32-32v-173a31 31 0 0 1 32-31h115a29 29 0 0 0 0 4v3a25 25 0 0 0-1 8 81 81 0 0 0 1 13l-1 3a15 15 0 0 0 0 3h-112v168h786v-168h-133a187 187 0 0 0 1-25 24 24 0 0 0-2-9h136a31 31 0 0 1 32 31v173a31 31 0 0 1-32 32z m-146-812h-493a42 42 0 0 0-41 42v736a34 34 0 0 0 34 34h507a34 34 0 0 0 35-34v-736a42 42 0 0 0-42-42z m-500 778h0v-736a8 8 0 0 1 7-8h493a8 8 0 0 1 7 8v736z m254-461a181 181 0 1 1-181 180 181 181 0 0 1 181-180z m0 327a146 146 0 1 0-147-147 147 147 0 0 0 147 147z m0-328a181 181 0 1 0 181 181 181 181 0 0 0-181-181z m0 361a180 180 0 1 1 180-180 180 180 0 0 1-180 180z m0-327h0a147 147 0 1 0 0 294h0a147 147 0 1 0 0-294z m0 293a146 146 0 1 1 0-292h0a146 146 0 0 1 0 292z m2-211a19 19 0 0 1-5 0c-14 1-26 11-26 23a17 17 0 0 1-34 0c0-23 18-44 45-50v-11a17 17 0 0 1 35 0v11c30 7 49 32 45 58s-31 45-62 45c-16 0-29 11-29 24s13 24 29 24 28-10 28-24a17 17 0 0 1 34 0c0 24-18 44-45 51v8a17 17 0 0 1-35 0v-8c-30-7-49-32-45-58s31-46 63-46c15 0 27-10 28-23s-11-23-26-24z m-1-53h-3a17 17 0 0 0-16 15v10c-27 7-45 28-46 51a17 17 0 0 0 18 15h1a17 17 0 0 0 17-15c0-12 11-22 25-23a19 19 0 0 0 5 0c15 1 26 12 26 24s-13 23-28 23h0c-31 0-58 19-63 46s15 51 45 58v8a18 18 0 0 0 35 0v-8c27-6 46-27 46-51a18 18 0 0 0-35 0c0 13-13 24-28 24s-28-11-28-24a22 22 0 0 1 8-16 31 31 0 0 1 20-7h0c31 0 58-20 62-46s-15-51-45-59v-10a17 17 0 0 0-16-15z m-1 1a16 16 0 0 1 16 14v11h1c29 7 49 32 44 58s-30 45-61 45h0a31 31 0 0 0-21 7 22 22 0 0 0-8 17c0 14 13 25 29 25s28-11 28-25a16 16 0 0 1 16-14h3a16 16 0 0 1 15 14c0 24-18 44-45 51l0 0v8a17 17 0 0 1-33 0v-8l-1 0c-30-8-49-32-44-58s30-45 61-45h0c16 0 28-10 29-23s-11-25-27-26h0a19 19 0 0 1-4 0c-15 1-27 12-27 24a17 17 0 0 1-33 0c0-23 19-43 45-50l0 0v-11a16 16 0 0 1 17-14z m146-353c-1 2-11 54 21 94 33 40 91 30 94 29l-7-33c0 0-40 7-60-18-22-26-15-65-15-65z m-293 0l-33 7c0 0 7 39-15 65-20 25-60 18-60 18l-7 33c3 1 61 11 94-29 31-40 22-92 21-94z" horiz-adv-x="1267" />

<glyph glyph-name="escrow-rp" unicode="&#xe81f;" d="M880 279a715 715 0 0 1-108 173 805 805 0 0 1-139 132l106 197a25 25 0 0 1-4 29c-28 27-57 40-89 40-30 0-57-11-81-21-18-8-36-15-50-15a32 32 0 0 0-12 2c-50 18-88 29-125 29-46 0-86-19-125-59a25 25 0 0 1-3-31l115-172a819 819 0 0 1-137-131 722 722 0 0 1-108-173 590 590 0 0 1-49-235 194 194 0 0 1 193-194h472a194 194 0 0 1 193 194 590 590 0 0 1-49 235z m-576 487c24 20 47 30 74 30 30 0 63-10 107-27a85 85 0 0 1 29-5c25 0 48 10 70 19 22 9 42 18 62 18 9 0 23-2 40-14l-100-186h-174z m432-866h-472a144 144 0 0 0-144 144c0 133 49 259 145 375a763 763 0 0 0 141 133h187c19-14 81-59 141-133 96-116 145-242 145-375a143 143 0 0 0-143-144z m-234 336q0-57-51-72l61-84h-50l-55 78h-51v-78h-39v232h86q53 0 76-18t23-58z m-98-43q34 0 45 10t12 33q0 23-12 32t-44 8h-49v-83z m235 66a84 84 0 0 0 61-25q25-24 25-65t-25-66q-25-26-59-26t-60 29v-91h-37v241h37v-31q22 34 58 34z m-58-91q0-26 15-42a49 49 0 0 1 37-16 53 53 0 0 1 38 16q17 16 17 41a59 59 0 0 1-16 43 51 51 0 0 1-38 16 49 49 0 0 1-38-16q-15-17-15-42z" horiz-adv-x="1000" />

<glyph glyph-name="order_history_merchant" unicode="&#xe820;" d="M183 359c0-9-6-15-17-15h-18v31h18c11 0 17-6 17-16z m-56 33v-105h21v41h10l23-41h24l-25 43a30 30 0 0 1 24 30c0 17-12 32-38 32z m117-34v12h-21v-123h21v52a34 34 0 0 1 28-13c21 0 38 17 38 43s-17 43-38 43a33 33 0 0 1-28-14z m45-29c0-16-11-25-23-25-11 0-22 9-22 25s11 24 22 24c12 0 23-8 23-24z m650 326h-228a210 210 0 0 1-418 0h-227a65 65 0 0 1-65-64v-582a65 65 0 0 1 65-65h307v-97h258v97h308a65 65 0 0 1 64 65v582a65 65 0 0 1-64 64z m32-64v-33h-388v33a32 32 0 0 0 32 32h324a32 32 0 0 0 32-32z m-315-276a50 50 0 0 1-25-2v17a48 48 0 0 1-48 50v146h388v-420h-275v160a50 50 0 0 1-40 49z m-171 183a48 48 0 0 1-31 12v81a65 65 0 0 1-64 64 113 113 0 0 0 224 0 65 65 0 0 1-63-64v-191a47 47 0 0 1-25 12 49 49 0 0 1-24-2v51a49 49 0 0 1-17 37z m-177-231v-161h-275v420h388v-29a51 51 0 0 1-16-37v-185a97 97 0 0 1-65 25 32 32 0 0 1-32-33z m194 550a178 178 0 0 0 177-162h-32a145 145 0 0 1-289 0h-33a178 178 0 0 0 177 162z m-436-194h323a32 32 0 0 0 32-32v-33h-388v33a32 32 0 0 0 33 32z m-33-614v64h275v-9a81 81 0 0 1 18-51l29-37h-289a32 32 0 0 0-33 33z m566-130h-194v87l-54 67a49 49 0 0 0-11 31v203a65 65 0 0 0 65-64v-65h32v322a18 18 0 0 0 14 17 16 16 0 0 0 13-3 16 16 0 0 0 6-13v-323h32v226a16 16 0 0 0 19 16 18 18 0 0 0 13-17v-225h33v194a16 16 0 0 0 5 12 16 16 0 0 0 14 4 18 18 0 0 0 13-18v-192h32v129a16 16 0 0 0 6 13 16 16 0 0 0 13 3 18 18 0 0 0 14-17v-202a49 49 0 0 0-11-31l-54-67z m340 97h-290l29 37a81 81 0 0 1 18 51v9h275v-64a32 32 0 0 0-32-33z m0 0m-776 65h129v-32h-129z m0 0m549 0h130v-32h-130z m0 0m43 318c0-9-5-15-17-15h-17v31h17c12 0 17-6 17-16z m-55 33v-105h21v41h10l23-41h24l-25 43a30 30 0 0 1 24 30c0 17-13 32-38 32z m117-34v12h-21v-123h21v52a34 34 0 0 1 28-13c21 0 38 17 38 43s-17 43-38 43a33 33 0 0 1-28-14z m44-29c0-16-10-25-22-25-11 0-22 9-22 25s11 24 22 24c12 0 22-8 22-24z" horiz-adv-x="1005" />

<glyph glyph-name="my_rupiah" unicode="&#xe821;" d="M501 850a500 500 0 1 1 0-1000c276 0 500 224 500 500a501 501 0 0 1-500 500z m0-945a445 445 0 1 0 445 445 445 445 0 0 0-445-445z m-94 539c0-38-22-65-71-65h-65v128h65c50 0 71-25 71-63z m-181 99v-338h45v138h53l80-138h53l-85 142c57 12 81 54 81 97 0 55-38 99-117 99z m339-121v49h-44v-392h44v175a115 115 0 0 1 100-53c71 0 126 56 126 138 0 83-55 136-126 136-49 0-84-25-100-53z m181-83c0-62-42-99-91-99-47 0-90 36-90 99 0 61 43 98 90 98 49 0 91-35 91-98z" horiz-adv-x="1001" />

<glyph glyph-name="funds-on-hold" unicode="&#xe822;" d="M460 171a20 20 0 1 1-27 0 20 20 0 0 1 27 0z m0 0m-92 464c0-118 96-215 215-215s215 97 215 215-97 215-215 215-215-96-215-215z m391 0c0-97-79-175-176-175s-176 78-176 175 79 176 176 176 176-79 176-176z m0 0m-534-780a20 20 0 0 1 28 0l95 93a59 59 0 0 1 14 61l20 20a58 58 0 0 0 41 16h260a175 175 0 0 1 122 50c2 1-10-12 177 212a78 78 0 0 1-118 101l-116-118a79 79 0 0 1-61 29h-218a252 252 0 0 1-97 19c-95 0-177-43-221-125a58 58 0 0 1-52-16l-93-93a20 20 0 0 1 0-28z m147 444a213 213 0 0 0 86-18 20 20 0 0 1 7-1h222a39 39 0 1 0 0-78h-159a20 20 0 1 1 0-40h159a78 78 0 0 1 78 89c111 115 127 131 128 131a39 39 0 1 0 60-50l-176-210a136 136 0 0 0-94-38h-260a97 97 0 0 1-68-27l-17-16-153 153c36 67 103 105 187 105z m-245-129a20 20 0 0 0 24 2c3-2-7 7 169-168a20 20 0 0 0 0-28l-81-80-192 194z m0 0m432 583v-23a59 59 0 0 1 20-114 20 20 0 1 0 0-39c-9 0-18 5-26 15a20 20 0 0 1-30-26c11-12 23-21 36-25v-23a20 20 0 1 1 39 0v23a59 59 0 0 1-19 114 20 20 0 0 0 0 39c7 0 14-3 21-10a20 20 0 0 1 27 28 76 76 0 0 1-29 18v23a20 20 0 1 1-39 0z m0 0" horiz-adv-x="1000" />
</font>
</defs>
</svg>
